<?xml version="1.0" encoding="UTF-8" standalone="no"?>
<!-- Created with Inkscape (http://www.inkscape.org/) -->

<svg
   width="500mm"
   height="500mm"
   viewBox="0 0 500 500"
   version="1.1"
   id="svg5"
   inkscape:version="1.2.2 (b0a8486541, 2022-12-01)"
   sodipodi:docname="dropFiles.svg"
   xml:space="preserve"
   xmlns:inkscape="http://www.inkscape.org/namespaces/inkscape"
   xmlns:sodipodi="http://sodipodi.sourceforge.net/DTD/sodipodi-0.dtd"
   xmlns="http://www.w3.org/2000/svg"
   xmlns:svg="http://www.w3.org/2000/svg"><sodipodi:namedview
     id="namedview7"
     pagecolor="#ffffff"
     bordercolor="#000000"
     borderopacity="0.25"
     inkscape:showpageshadow="2"
     inkscape:pageopacity="0.0"
     inkscape:pagecheckerboard="0"
     inkscape:deskcolor="#d1d1d1"
     inkscape:document-units="mm"
     showgrid="false"
     inkscape:zoom="0.26771948"
     inkscape:cx="541.61169"
     inkscape:cy="913.26937"
     inkscape:window-width="1857"
     inkscape:window-height="1016"
     inkscape:window-x="0"
     inkscape:window-y="27"
     inkscape:window-maximized="1"
     inkscape:current-layer="layer1" /><defs
     id="defs2"><inkscape:path-effect
       effect="bspline"
       id="path-effect8143"
       is_visible="true"
       lpeversion="1"
       weight="33.333333"
       steps="2"
       helper_size="0"
       apply_no_weight="true"
       apply_with_weight="true"
       only_selected="false" /><rect
       x="816.17013"
       y="959.12187"
       width="490.53444"
       height="363.07035"
       id="rect4778" /><inkscape:path-effect
       effect="bspline"
       id="path-effect4263"
       is_visible="true"
       lpeversion="1"
       weight="33.333333"
       steps="2"
       helper_size="0"
       apply_no_weight="true"
       apply_with_weight="true"
       only_selected="false" /><inkscape:path-effect
       effect="bspline"
       id="path-effect4205"
       is_visible="true"
       lpeversion="1"
       weight="33.333333"
       steps="2"
       helper_size="0"
       apply_no_weight="true"
       apply_with_weight="true"
       only_selected="false" /></defs><g
     inkscape:label="Layer 1"
     inkscape:groupmode="layer"
     id="layer1"><path
       style="display:inline;fill:#202324;fill-opacity:1;stroke:#202324;stroke-width:8;stroke-linecap:round;stroke-linejoin:round;stroke-dasharray:none;stroke-opacity:1"
       d="m 327.92892,47.212629 c 5.06812,1.602994 10.13597,3.205903 17.55741,6.921048 7.42144,3.715144 17.1968,9.542579 28.7832,18.709212 11.58641,9.166633 24.98291,21.671542 38.37982,34.176831"
       id="path8141"
       inkscape:path-effect="#path-effect8143"
       inkscape:original-d="m 327.92892,47.212629 c 5.06807,1.603158 10.13592,3.206068 15.20334,4.808662 9.77547,5.827609 19.55082,11.655044 29.32614,17.482353 13.39753,12.505888 26.79403,25.010796 40.19095,37.516076"
       sodipodi:nodetypes="cccc" /><ellipse
       style="display:inline;fill:#000000;fill-opacity:1;stroke:none;stroke-width:6.1049;stroke-linejoin:round;stroke-dasharray:none"
       id="path5367"
       cx="250"
       cy="460.16733"
       rx="233.88951"
       ry="19.368757" /><path
       id="rect111"
       style="fill:#202324;fill-opacity:1;stroke:none;stroke-width:4;stroke-linecap:round;stroke-linejoin:round;stroke-dasharray:none;stroke-opacity:1"
       d="m 416.36627,105.60533 c 8.79906,43.14183 17.80342,102.44551 17.80342,139.06942 0,69.00367 -33.28285,212.33652 -33.28285,212.33652 H 65.830317 c 0,0 18.66177,-152.57898 18.66177,-221.58265 0,-69.00368 -18.66177,-192.43988 -18.66177,-192.43988 v 0 l 262.289133,0.192187"
       sodipodi:nodetypes="csccsccc" /><path
       id="path4319"
       style="fill:#000000;fill-opacity:1;stroke:none;stroke-width:6.21847;stroke-linejoin:round"
       d="m 415.52162,107.43717 c 0,0 -18.61526,10.10729 -41.69316,9.57836 -23.07791,-0.52893 -45.79617,-1.96068 -45.79617,-1.96068 0,0 1.67598,-14.92922 0.86419,-31.926055 -1.01074,-21.162173 -1.29594,-26.228797 -2.7997,-37.332861"
       sodipodi:nodetypes="czcsc" /><g
       aria-label="?"
       transform="matrix(21.503493,0,0,21.503493,-17362.495,-20498.414)"
       id="text4776"
       style="font-family:Chilanka;-inkscape-font-specification:Chilanka;white-space:pre;shape-inside:url(#rect4778);display:inline;fill:#b3b3b3;stroke-width:15.1181;stroke-linejoin:round;fill-opacity:1"><path
         d="m 818.47852,961.13867 c 0.22851,0 0.49218,0.0527 0.79101,0.14649 0.38672,0.12304 1.25391,0.46289 1.3418,0.80859 0.0176,0.082 -0.0117,0.17578 -0.0996,0.27539 -0.19336,0.26367 -0.48633,0.5625 -0.87891,0.88477 -0.39258,0.32226 -0.66797,0.59765 -0.82617,0.83203 -0.28711,0.43359 -0.42773,0.84961 -0.42773,1.27148 0,0.61524 0.19336,1.17188 0.5625,1.6582 0.0762,0.10547 0.18164,0.14649 0.28125,0.14649 0.20507,0 0.41015,-0.17578 0.41015,-0.38672 0,-0.0703 -0.0234,-0.14648 -0.082,-0.22266 -0.25195,-0.33398 -0.41601,-0.74414 -0.41601,-1.15429 0,-0.27539 0.0762,-0.54492 0.24023,-0.79102 0.16406,-0.24023 0.43359,-0.51562 0.82031,-0.83203 0.76758,-0.62695 1.1543,-1.17773 1.1543,-1.64648 0,-0.0703 -0.006,-0.13477 -0.0234,-0.19922 -0.14062,-0.56836 -0.73828,-1.01953 -1.79297,-1.35938 -0.39258,-0.1289 -0.75,-0.1875 -1.07226,-0.1875 -0.96094,0 -1.70508,0.60938 -1.70508,1.62305 0,0.19336 0.0234,0.4043 0.0703,0.63281 0.041,0.20508 0.19922,0.29297 0.36328,0.29297 0.19336,0 0.39844,-0.13477 0.39844,-0.36328 0,-0.0234 -0.006,-0.0586 -0.0117,-0.0879 -0.0352,-0.17578 -0.0586,-0.33399 -0.0586,-0.47461 0,-0.5918 0.40429,-0.86719 0.96094,-0.86719 z m 0.72656,8.25 c 0.36914,0 0.61523,-0.39258 0.61523,-0.7793 0,-0.38671 -0.24609,-0.77929 -0.61523,-0.77929 -0.36914,0 -0.6211,0.39258 -0.6211,0.77929 0,0.38672 0.25196,0.7793 0.6211,0.7793 z"
         id="path5523"
         style="fill:#b3b3b3;fill-opacity:1" /></g><g
       id="g4833"
       transform="matrix(1.5284487,0,0,1.3635108,-141.24734,-176.71639)"
       style="fill:#202324;fill-opacity:1;stroke:#373c3e;stroke-width:2.75674;stroke-linecap:round;stroke-linejoin:round;stroke-dasharray:none;stroke-opacity:1"><path
         id="path4146"
         style="fill:#202324;fill-opacity:1;stroke:#b3b3b3;stroke-width:2.75674;stroke-linecap:round;stroke-linejoin:round;stroke-dasharray:none;stroke-opacity:1"
         d="m 363.33356,207.28674 c 0,0 -15.67074,4.54734 -24.49145,4.49747 -8.82071,-0.0499 -24.73568,-2.44545 -24.73568,-2.44545 0,0 -0.13173,-9.34792 -3.47143,-25.69417 -1.33861,-6.55187 -1.96797,-12.21313 -3.46453,-20.17873"
         sodipodi:nodetypes="czcsc" /></g></g></svg>
