<?xml version="1.0" encoding="UTF-8" standalone="no"?>
<!-- Created with Inkscape (http://www.inkscape.org/) -->

<svg
   width="500mm"
   height="500mm"
   viewBox="0 0 500 500"
   version="1.1"
   id="svg5"
   inkscape:version="1.2.2 (b0a8486541, 2022-12-01)"
   sodipodi:docname="favicon.svg"
   xml:space="preserve"
   xmlns:inkscape="http://www.inkscape.org/namespaces/inkscape"
   xmlns:sodipodi="http://sodipodi.sourceforge.net/DTD/sodipodi-0.dtd"
   xmlns="http://www.w3.org/2000/svg"
   xmlns:svg="http://www.w3.org/2000/svg"><sodipodi:namedview
     id="namedview7"
     pagecolor="#ffffff"
     bordercolor="#000000"
     borderopacity="0.25"
     inkscape:showpageshadow="2"
     inkscape:pageopacity="0.0"
     inkscape:pagecheckerboard="0"
     inkscape:deskcolor="#d1d1d1"
     inkscape:document-units="mm"
     showgrid="false"
     inkscape:zoom="0.37861251"
     inkscape:cx="1941.2987"
     inkscape:cy="455.61093"
     inkscape:window-width="1857"
     inkscape:window-height="1016"
     inkscape:window-x="0"
     inkscape:window-y="27"
     inkscape:window-maximized="1"
     inkscape:current-layer="layer1" /><defs
     id="defs2"><inkscape:path-effect
       effect="bspline"
       id="path-effect8143"
       is_visible="true"
       lpeversion="1"
       weight="33.333333"
       steps="2"
       helper_size="0"
       apply_no_weight="true"
       apply_with_weight="true"
       only_selected="false" /><rect
       x="816.17013"
       y="959.12187"
       width="490.53444"
       height="363.07035"
       id="rect4778" /><inkscape:path-effect
       effect="bspline"
       id="path-effect4263"
       is_visible="true"
       lpeversion="1"
       weight="33.333333"
       steps="2"
       helper_size="0"
       apply_no_weight="true"
       apply_with_weight="true"
       only_selected="false" /><inkscape:path-effect
       effect="bspline"
       id="path-effect4205"
       is_visible="true"
       lpeversion="1"
       weight="33.333333"
       steps="2"
       helper_size="0"
       apply_no_weight="true"
       apply_with_weight="true"
       only_selected="false" /></defs><g
     inkscape:label="Layer 1"
     inkscape:groupmode="layer"
     id="layer1"><path
       style="display:inline;fill:#373c3e;fill-opacity:1;stroke:#ffffff;stroke-width:8;stroke-linecap:round;stroke-linejoin:round;stroke-dasharray:none;stroke-opacity:1"
       d="m 328.00009,45.561711 c 4.63904,2.080069 9.27781,4.160016 16.3675,8.283313 7.08969,4.123297 16.63061,10.290053 28.7002,19.323914 12.06959,9.033862 26.66682,20.933971 41.26451,32.834452"
       id="path8141"
       inkscape:path-effect="#path-effect8143"
       inkscape:original-d="m 328.00009,45.561711 c 4.63899,2.080191 9.27776,4.160138 13.91612,6.239754 9.54103,6.166922 19.08195,12.333677 28.62282,18.50031 14.59833,11.901053 29.19556,23.801163 43.79327,35.701615"
       sodipodi:nodetypes="cccc" /><path
       id="rect111"
       style="fill:#ffffff;fill-opacity:1;stroke:#373c3e;stroke-width:4;stroke-linecap:round;stroke-linejoin:round;stroke-dasharray:none;stroke-opacity:1"
       d="m 416.36627,105.60533 c 8.79906,43.14183 17.80342,102.44551 17.80342,139.06942 0,69.00367 -33.28285,212.33652 -33.28285,212.33652 H 65.830317 c 0,0 18.66177,-152.57898 18.66177,-221.58265 0,-69.00368 -18.66177,-192.43988 -18.66177,-192.43988 v 0 L 328.4409,43.267917"
       sodipodi:nodetypes="csccsccc" /><path
       id="path4319"
       style="fill:#000000;fill-opacity:1;stroke:none;stroke-width:6.21847;stroke-linejoin:round"
       d="m 415.52162,107.43717 c 0,0 -18.61526,10.10729 -41.69316,9.57836 -23.07791,-0.52893 -45.79617,-1.96068 -45.79617,-1.96068 0,0 1.67598,-14.92922 0.86419,-31.926055 -1.01074,-21.162173 -0.46867,-26.602324 -1.97243,-37.706388"
       sodipodi:nodetypes="czcsc" /><g
       id="g4833"
       transform="matrix(1.5183068,0,0,1.3866515,-138.12263,-181.6259)"
       style="fill:#ffffff;fill-opacity:1;stroke-width:2.62085;stroke-dasharray:none;stroke:#373c3e;stroke-opacity:1"><path
         id="path4146"
         style="fill:#ffffff;fill-opacity:1;stroke:#373c3e;stroke-width:2.62085;stroke-linejoin:round;stroke-dasharray:none;stroke-opacity:1"
         d="m 365.04018,207.24513 c 0,0 -17.37736,4.58895 -26.19807,4.53908 -8.82071,-0.0499 -24.73568,-2.44545 -24.73568,-2.44545 0,0 -0.13173,-9.34792 -3.47143,-25.69417 -1.33861,-6.55187 -1.81103,-13.35747 -3.30759,-21.32307"
         sodipodi:nodetypes="czcsc" /></g></g></svg>
